<svg id="my-svg" width="100%" xmlns="http://www.w3.org/2000/svg" xmlns:xlink="http://www.w3.org/1999/xlink" class="flowchart" style="max-width: 691px; background-color: white;" viewBox="0 0 691 862" role="graphics-document document" aria-roledescription="flowchart-v2"><style>#my-svg{font-family:"trebuchet ms",verdana,arial,sans-serif;font-size:16px;fill:#333;}@keyframes edge-animation-frame{from{stroke-dashoffset:0;}}@keyframes dash{to{stroke-dashoffset:0;}}#my-svg .edge-animation-slow{stroke-dasharray:9,5!important;stroke-dashoffset:900;animation:dash 50s linear infinite;stroke-linecap:round;}#my-svg .edge-animation-fast{stroke-dasharray:9,5!important;stroke-dashoffset:900;animation:dash 20s linear infinite;stroke-linecap:round;}#my-svg .error-icon{fill:#552222;}#my-svg .error-text{fill:#552222;stroke:#552222;}#my-svg .edge-thickness-normal{stroke-width:1px;}#my-svg .edge-thickness-thick{stroke-width:3.5px;}#my-svg .edge-pattern-solid{stroke-dasharray:0;}#my-svg .edge-thickness-invisible{stroke-width:0;fill:none;}#my-svg .edge-pattern-dashed{stroke-dasharray:3;}#my-svg .edge-pattern-dotted{stroke-dasharray:2;}#my-svg .marker{fill:#333333;stroke:#333333;}#my-svg .marker.cross{stroke:#333333;}#my-svg svg{font-family:"trebuchet ms",verdana,arial,sans-serif;font-size:16px;}#my-svg p{margin:0;}#my-svg .label{font-family:"trebuchet ms",verdana,arial,sans-serif;color:#333;}#my-svg .cluster-label text{fill:#333;}#my-svg .cluster-label span{color:#333;}#my-svg .cluster-label span p{background-color:transparent;}#my-svg .label text,#my-svg span{fill:#333;color:#333;}#my-svg .node rect,#my-svg .node circle,#my-svg .node ellipse,#my-svg .node polygon,#my-svg .node path{fill:#ECECFF;stroke:#9370DB;stroke-width:1px;}#my-svg .rough-node .label text,#my-svg .node .label text,#my-svg .image-shape .label,#my-svg .icon-shape .label{text-anchor:middle;}#my-svg .node .katex path{fill:#000;stroke:#000;stroke-width:1px;}#my-svg .rough-node .label,#my-svg .node .label,#my-svg .image-shape .label,#my-svg .icon-shape .label{text-align:center;}#my-svg .node.clickable{cursor:pointer;}#my-svg .root .anchor path{fill:#333333!important;stroke-width:0;stroke:#333333;}#my-svg .arrowheadPath{fill:#333333;}#my-svg .edgePath .path{stroke:#333333;stroke-width:1px;}#my-svg .flowchart-link{stroke:#333333;fill:none;}#my-svg .edgeLabel{background-color:rgba(232,232,232, 0.8);text-align:center;}#my-svg .edgeLabel p{background-color:rgba(232,232,232, 0.8);}#my-svg .edgeLabel rect{opacity:0.5;background-color:rgba(232,232,232, 0.8);fill:rgba(232,232,232, 0.8);}#my-svg .labelBkg{background-color:rgba(232, 232, 232, 0.5);}#my-svg .cluster rect{fill:#ffffde;stroke:#aaaa33;stroke-width:1px;}#my-svg .cluster text{fill:#333;}#my-svg .cluster span{color:#333;}#my-svg div.mermaidTooltip{position:absolute;text-align:center;max-width:200px;padding:2px;font-family:"trebuchet ms",verdana,arial,sans-serif;font-size:12px;background:hsl(80, 100%, 96.2745098039%);border:1px solid #aaaa33;border-radius:2px;pointer-events:none;z-index:100;}#my-svg .flowchartTitleText{text-anchor:middle;font-size:18px;fill:#333;}#my-svg rect.text{fill:none;stroke-width:0;}#my-svg .icon-shape,#my-svg .image-shape{background-color:rgba(232,232,232, 0.8);text-align:center;}#my-svg .icon-shape p,#my-svg .image-shape p{background-color:rgba(232,232,232, 0.8);padding:2px;}#my-svg .icon-shape .label rect,#my-svg .image-shape .label rect{opacity:0.5;background-color:rgba(232,232,232, 0.8);fill:rgba(232,232,232, 0.8);}#my-svg .label-icon{display:inline-block;height:1em;overflow:visible;vertical-align:-0.125em;}#my-svg .node .label-icon path{fill:currentColor;stroke:revert;stroke-width:revert;}#my-svg .node .neo-node{stroke:#9370DB;}#my-svg [data-look="neo"].node rect,#my-svg [data-look="neo"].cluster rect,#my-svg [data-look="neo"].node polygon{stroke:#9370DB;filter:drop-shadow(1px 2px 2px rgba(185, 185, 185, 1));}#my-svg [data-look="neo"].node path{stroke:#9370DB;stroke-width:1px;}#my-svg [data-look="neo"].node .outer-path{filter:drop-shadow(1px 2px 2px rgba(185, 185, 185, 1));}#my-svg [data-look="neo"].node .neo-line path{stroke:#9370DB;filter:none;}#my-svg [data-look="neo"].node circle{stroke:#9370DB;filter:drop-shadow(1px 2px 2px rgba(185, 185, 185, 1));}#my-svg [data-look="neo"].node circle .state-start{fill:#000000;}#my-svg [data-look="neo"].icon-shape .icon{fill:#9370DB;filter:drop-shadow(1px 2px 2px rgba(185, 185, 185, 1));}#my-svg [data-look="neo"].icon-shape .icon-neo path{stroke:#9370DB;filter:drop-shadow(1px 2px 2px rgba(185, 185, 185, 1));}#my-svg :root{--mermaid-font-family:"trebuchet ms",verdana,arial,sans-serif;}</style><g><marker id="my-svg_flowchart-v2-pointEnd" class="marker flowchart-v2" viewBox="0 0 10 10" refX="5" refY="5" markerUnits="userSpaceOnUse" markerWidth="8" markerHeight="8" orient="auto"><path d="M 0 0 L 10 5 L 0 10 z" class="arrowMarkerPath" style="stroke-width: 1; stroke-dasharray: 1, 0;"/></marker><marker id="my-svg_flowchart-v2-pointStart" class="marker flowchart-v2" viewBox="0 0 10 10" refX="4.5" refY="5" markerUnits="userSpaceOnUse" markerWidth="8" markerHeight="8" orient="auto"><path d="M 0 5 L 10 10 L 10 0 z" class="arrowMarkerPath" style="stroke-width: 1; stroke-dasharray: 1, 0;"/></marker><marker id="my-svg_flowchart-v2-pointEnd-margin" class="marker flowchart-v2" viewBox="0 0 11.5 14" refX="11.5" refY="7" markerUnits="userSpaceOnUse" markerWidth="10.5" markerHeight="14" orient="auto"><path d="M 0 0 L 11.5 7 L 0 14 z" class="arrowMarkerPath" style="stroke-width: 0; stroke-dasharray: 1, 0;"/></marker><marker id="my-svg_flowchart-v2-pointStart-margin" class="marker flowchart-v2" viewBox="0 0 11.5 14" refX="1" refY="7" markerUnits="userSpaceOnUse" markerWidth="11.5" markerHeight="14" orient="auto"><polygon points="0,7 11.5,14 11.5,0" class="arrowMarkerPath" style="stroke-width: 0; stroke-dasharray: 1, 0;"/></marker><marker id="my-svg_flowchart-v2-circleEnd" class="marker flowchart-v2" viewBox="0 0 10 10" refX="11" refY="5" markerUnits="userSpaceOnUse" markerWidth="11" markerHeight="11" orient="auto"><circle cx="5" cy="5" r="5" class="arrowMarkerPath" style="stroke-width: 1; stroke-dasharray: 1, 0;"/></marker><marker id="my-svg_flowchart-v2-circleStart" class="marker flowchart-v2" viewBox="0 0 10 10" refX="-1" refY="5" markerUnits="userSpaceOnUse" markerWidth="11" markerHeight="11" orient="auto"><circle cx="5" cy="5" r="5" class="arrowMarkerPath" style="stroke-width: 1; stroke-dasharray: 1, 0;"/></marker><marker id="my-svg_flowchart-v2-circleEnd-margin" class="marker flowchart-v2" viewBox="0 0 10 10" refY="5" refX="12.25" markerUnits="userSpaceOnUse" markerWidth="14" markerHeight="14" orient="auto"><circle cx="5" cy="5" r="5" class="arrowMarkerPath" style="stroke-width: 0; stroke-dasharray: 1, 0;"/></marker><marker id="my-svg_flowchart-v2-circleStart-margin" class="marker flowchart-v2" viewBox="0 0 10 10" refX="-2" refY="5" markerUnits="userSpaceOnUse" markerWidth="14" markerHeight="14" orient="auto"><circle cx="5" cy="5" r="5" class="arrowMarkerPath" style="stroke-width: 0; stroke-dasharray: 1, 0;"/></marker><marker id="my-svg_flowchart-v2-crossEnd" class="marker cross flowchart-v2" viewBox="0 0 11 11" refX="12" refY="5.2" markerUnits="userSpaceOnUse" markerWidth="11" markerHeight="11" orient="auto"><path d="M 1,1 l 9,9 M 10,1 l -9,9" class="arrowMarkerPath" style="stroke-width: 2; stroke-dasharray: 1, 0;"/></marker><marker id="my-svg_flowchart-v2-crossStart" class="marker cross flowchart-v2" viewBox="0 0 11 11" refX="-1" refY="5.2" markerUnits="userSpaceOnUse" markerWidth="11" markerHeight="11" orient="auto"><path d="M 1,1 l 9,9 M 10,1 l -9,9" class="arrowMarkerPath" style="stroke-width: 2; stroke-dasharray: 1, 0;"/></marker><marker id="my-svg_flowchart-v2-crossEnd-margin" class="marker cross flowchart-v2" viewBox="0 0 15 15" refX="17.7" refY="7.5" markerUnits="userSpaceOnUse" markerWidth="12" markerHeight="12" orient="auto"><path d="M 1,1 L 14,14 M 1,14 L 14,1" class="arrowMarkerPath" style="stroke-width: 2.5;"/></marker><marker id="my-svg_flowchart-v2-crossStart-margin" class="marker cross flowchart-v2" viewBox="0 0 15 15" refX="-3.5" refY="7.5" markerUnits="userSpaceOnUse" markerWidth="12" markerHeight="12" orient="auto"><path d="M 1,1 L 14,14 M 1,14 L 14,1" class="arrowMarkerPath" style="stroke-width: 2.5; stroke-dasharray: 1, 0;"/></marker><g class="root"><g class="clusters"/><g class="edgePaths"><path d="M194.367,318L200.389,322.167C206.411,326.333,218.456,334.667,229.322,342.591C240.189,350.516,249.877,358.032,254.722,361.79L259.566,365.548" id="my-svg-L_CONTRACT_SCHEMA_0" class="edge-thickness-normal edge-pattern-solid edge-thickness-normal edge-pattern-solid flowchart-link" style=";" data-edge="true" data-et="edge" data-id="L_CONTRACT_SCHEMA_0" data-points="W3sieCI6MTk0LjM2NzE4NzUsInkiOjMxOH0seyJ4IjoyMzAuNSwieSI6MzQzfSx7IngiOjI2Mi43MjY1NjI1LCJ5IjozNjh9XQ==" data-look="classic" marker-end="url(#my-svg_flowchart-v2-pointEnd)"/><path d="M138,318L138,322.167C138,326.333,138,334.667,138,349.5C138,364.333,138,385.667,138,407C138,428.333,138,449.667,148.767,464.271C159.534,478.875,181.068,486.751,191.836,490.688L202.603,494.626" id="my-svg-L_CONTRACT_DSLVAL_0" class="edge-thickness-normal edge-pattern-solid edge-thickness-normal edge-pattern-solid flowchart-link" style=";" data-edge="true" data-et="edge" data-id="L_CONTRACT_DSLVAL_0" data-points="W3sieCI6MTM4LCJ5IjozMTh9LHsieCI6MTM4LCJ5IjozNDN9LHsieCI6MTM4LCJ5Ijo0MDd9LHsieCI6MTM4LCJ5Ijo0NzF9LHsieCI6MjA2LjM1OTM3NSwieSI6NDk2fV0=" data-look="classic" marker-end="url(#my-svg_flowchart-v2-pointEnd)"/><path d="M268,302.111L306.333,308.926C344.667,315.741,421.333,329.37,459.667,346.852C498,364.333,498,385.667,498,407C498,428.333,498,449.667,498,471C498,492.333,498,513.667,498,535C498,556.333,498,577.667,499.103,591.864C500.206,606.061,502.413,613.121,503.516,616.652L504.619,620.182" id="my-svg-L_CONTRACT_MERVAL_0" class="edge-thickness-normal edge-pattern-solid edge-thickness-normal edge-pattern-solid flowchart-link" style=";" data-edge="true" data-et="edge" data-id="L_CONTRACT_MERVAL_0" data-points="W3sieCI6MjY4LCJ5IjozMDIuMTExMTExMTExMTExMX0seyJ4Ijo0OTgsInkiOjM0M30seyJ4Ijo0OTgsInkiOjQwN30seyJ4Ijo0OTgsInkiOjQ3MX0seyJ4Ijo0OTgsInkiOjUzNX0seyJ4Ijo0OTgsInkiOjU5OX0seyJ4Ijo1MDUuODEyNSwieSI6NjI0fV0=" data-look="classic" marker-end="url(#my-svg_flowchart-v2-pointEnd)"/><path d="M125.813,318L124.51,322.167C123.208,326.333,120.604,334.667,119.302,349.5C118,364.333,118,385.667,118,407C118,428.333,118,449.667,118,471C118,492.333,118,513.667,118,535C118,556.333,118,577.667,118,599C118,620.333,118,641.667,118,663C118,684.333,118,705.667,145.271,723.3C172.541,740.933,227.083,754.867,254.354,761.833L281.624,768.8" id="my-svg-L_CONTRACT_RENDER_0" class="edge-thickness-normal edge-pattern-solid edge-thickness-normal edge-pattern-solid flowchart-link" style=";" data-edge="true" data-et="edge" data-id="L_CONTRACT_RENDER_0" data-points="W3sieCI6MTI1LjgxMjUsInkiOjMxOH0seyJ4IjoxMTgsInkiOjM0M30seyJ4IjoxMTgsInkiOjQwN30seyJ4IjoxMTgsInkiOjQ3MX0seyJ4IjoxMTgsInkiOjUzNX0seyJ4IjoxMTgsInkiOjU5OX0seyJ4IjoxMTgsInkiOjY2M30seyJ4IjoxMTgsInkiOjcyN30seyJ4IjoyODUuNSwieSI6NzY5Ljc4OTkxNTk2NjM4NjV9XQ==" data-look="classic" marker-end="url(#my-svg_flowchart-v2-pointEnd)"/><path d="M313,446L313,450.167C313,454.333,313,462.667,313,470.333C313,478,313,485,313,488.5L313,492" id="my-svg-L_SCHEMA_DSLVAL_0" class="edge-thickness-normal edge-pattern-solid edge-thickness-normal edge-pattern-solid flowchart-link" style=";" data-edge="true" data-et="edge" data-id="L_SCHEMA_DSLVAL_0" data-points="W3sieCI6MzEzLCJ5Ijo0NDZ9LHsieCI6MzEzLCJ5Ijo0NzF9LHsieCI6MzEzLCJ5Ijo0OTZ9XQ==" data-look="classic" marker-end="url(#my-svg_flowchart-v2-pointEnd)"/><path d="M437.922,574L451.268,578.167C464.615,582.333,491.307,590.667,504.654,598.333C518,606,518,613,518,616.5L518,620" id="my-svg-L_DSLVAL_MERVAL_0" class="edge-thickness-normal edge-pattern-solid edge-thickness-normal edge-pattern-solid flowchart-link" style=";" data-edge="true" data-et="edge" data-id="L_DSLVAL_MERVAL_0" data-points="W3sieCI6NDM3LjkyMTg3NSwieSI6NTc0fSx7IngiOjUxOCwieSI6NTk5fSx7IngiOjUxOCwieSI6NjI0fV0=" data-look="classic" marker-end="url(#my-svg_flowchart-v2-pointEnd)"/><path d="M313,574L313,578.167C313,582.333,313,590.667,313,605.5C313,620.333,313,641.667,313,663C313,684.333,313,705.667,318.084,720.103C323.168,734.539,333.336,742.078,338.42,745.848L343.504,749.618" id="my-svg-L_DSLVAL_RENDER_0" class="edge-thickness-normal edge-pattern-solid edge-thickness-normal edge-pattern-solid flowchart-link" style=";" data-edge="true" data-et="edge" data-id="L_DSLVAL_RENDER_0" data-points="W3sieCI6MzEzLCJ5Ijo1NzR9LHsieCI6MzEzLCJ5Ijo1OTl9LHsieCI6MzEzLCJ5Ijo2NjN9LHsieCI6MzEzLCJ5Ijo3Mjd9LHsieCI6MzQ2LjcxNzEwNTI2MzE1NzksInkiOjc1Mn1d" data-look="classic" marker-end="url(#my-svg_flowchart-v2-pointEnd)"/><path d="M518,702L518,706.167C518,710.333,518,718.667,512.916,726.603C507.832,734.539,497.664,742.078,492.58,745.848L487.496,749.618" id="my-svg-L_MERVAL_RENDER_0" class="edge-thickness-normal edge-pattern-solid edge-thickness-normal edge-pattern-solid flowchart-link" style=";" data-edge="true" data-et="edge" data-id="L_MERVAL_RENDER_0" data-points="W3sieCI6NTE4LCJ5Ijo3MDJ9LHsieCI6NTE4LCJ5Ijo3Mjd9LHsieCI6NDg0LjI4Mjg5NDczNjg0MjEsInkiOjc1Mn1d" data-look="classic" marker-end="url(#my-svg_flowchart-v2-pointEnd)"/><path d="M138,190L138,194.167C138,198.333,138,206.667,138,214.333C138,222,138,229,138,232.5L138,236" id="my-svg-L_INSTALL_CONTRACT_0" class="edge-thickness-normal edge-pattern-solid edge-thickness-normal edge-pattern-solid flowchart-link" style=";" data-edge="true" data-et="edge" data-id="L_INSTALL_CONTRACT_0" data-points="W3sieCI6MTM4LCJ5IjoxOTB9LHsieCI6MTM4LCJ5IjoyMTV9LHsieCI6MTM4LCJ5IjoyNDB9XQ==" data-look="classic" marker-end="url(#my-svg_flowchart-v2-pointEnd)"/><path d="M417.727,86L412.355,90.167C406.984,94.333,396.242,102.667,390.871,115.5C385.5,128.333,385.5,145.667,385.5,163C385.5,180.333,385.5,197.667,385.5,217C385.5,236.333,385.5,257.667,385.5,279C385.5,300.333,385.5,321.667,381.28,336.059C377.059,350.451,368.619,357.902,364.399,361.627L360.178,365.353" id="my-svg-L_TESTS_SCHEMA_0" class="edge-thickness-normal edge-pattern-solid edge-thickness-normal edge-pattern-solid flowchart-link" style=";" data-edge="true" data-et="edge" data-id="L_TESTS_SCHEMA_0" data-points="W3sieCI6NDE3LjcyNjU2MjUsInkiOjg2fSx7IngiOjM4NS41LCJ5IjoxMTF9LHsieCI6Mzg1LjUsInkiOjE2M30seyJ4IjozODUuNSwieSI6MjE1fSx7IngiOjM4NS41LCJ5IjoyNzl9LHsieCI6Mzg1LjUsInkiOjM0M30seyJ4IjozNTcuMTc5Njg3NSwieSI6MzY4fV0=" data-look="classic" marker-end="url(#my-svg_flowchart-v2-pointEnd)"/><path d="M474.094,86L474.745,90.167C475.396,94.333,476.698,102.667,477.349,115.5C478,128.333,478,145.667,478,163C478,180.333,478,197.667,478,217C478,236.333,478,257.667,478,279C478,300.333,478,321.667,478,343C478,364.333,478,385.667,478,407C478,428.333,478,449.667,467.879,464.259C457.759,478.851,437.517,486.702,427.397,490.628L417.276,494.553" id="my-svg-L_TESTS_DSLVAL_0" class="edge-thickness-normal edge-pattern-solid edge-thickness-normal edge-pattern-solid flowchart-link" style=";" data-edge="true" data-et="edge" data-id="L_TESTS_DSLVAL_0" data-points="W3sieCI6NDc0LjA5Mzc1LCJ5Ijo4Nn0seyJ4Ijo0NzgsInkiOjExMX0seyJ4Ijo0NzgsInkiOjE2M30seyJ4Ijo0NzgsInkiOjIxNX0seyJ4Ijo0NzgsInkiOjI3OX0seyJ4Ijo0NzgsInkiOjM0M30seyJ4Ijo0NzgsInkiOjQwN30seyJ4Ijo0NzgsInkiOjQ3MX0seyJ4Ijo0MTMuNTQ2ODc1LCJ5Ijo0OTZ9XQ==" data-look="classic" marker-end="url(#my-svg_flowchart-v2-pointEnd)"/><path d="M548.742,86L557.368,90.167C565.995,94.333,583.247,102.667,591.874,115.5C600.5,128.333,600.5,145.667,600.5,163C600.5,180.333,600.5,197.667,600.5,217C600.5,236.333,600.5,257.667,600.5,279C600.5,300.333,600.5,321.667,600.5,343C600.5,364.333,600.5,385.667,600.5,407C600.5,428.333,600.5,449.667,600.5,471C600.5,492.333,600.5,513.667,600.5,535C600.5,556.333,600.5,577.667,595.656,592.091C590.811,606.516,581.123,614.032,576.278,617.79L571.434,621.548" id="my-svg-L_TESTS_MERVAL_0" class="edge-thickness-normal edge-pattern-solid edge-thickness-normal edge-pattern-solid flowchart-link" style=";" data-edge="true" data-et="edge" data-id="L_TESTS_MERVAL_0" data-points="W3sieCI6NTQ4Ljc0MjE4NzUsInkiOjg2fSx7IngiOjYwMC41LCJ5IjoxMTF9LHsieCI6NjAwLjUsInkiOjE2M30seyJ4Ijo2MDAuNSwieSI6MjE1fSx7IngiOjYwMC41LCJ5IjoyNzl9LHsieCI6NjAwLjUsInkiOjM0M30seyJ4Ijo2MDAuNSwieSI6NDA3fSx7IngiOjYwMC41LCJ5Ijo0NzF9LHsieCI6NjAwLjUsInkiOjUzNX0seyJ4Ijo2MDAuNSwieSI6NTk5fSx7IngiOjU2OC4yNzM0Mzc1LCJ5Ijo2MjR9XQ==" data-look="classic" marker-end="url(#my-svg_flowchart-v2-pointEnd)"/><path d="M598,85.698L612.167,89.915C626.333,94.132,654.667,102.566,668.833,115.45C683,128.333,683,145.667,683,163C683,180.333,683,197.667,683,217C683,236.333,683,257.667,683,279C683,300.333,683,321.667,683,343C683,364.333,683,385.667,683,407C683,428.333,683,449.667,683,471C683,492.333,683,513.667,683,535C683,556.333,683,577.667,683,599C683,620.333,683,641.667,683,663C683,684.333,683,705.667,660.725,722.662C638.449,739.657,593.898,752.315,571.623,758.644L549.348,764.972" id="my-svg-L_TESTS_RENDER_0" class="edge-thickness-normal edge-pattern-solid edge-thickness-normal edge-pattern-solid flowchart-link" style=";" data-edge="true" data-et="edge" data-id="L_TESTS_RENDER_0" data-points="W3sieCI6NTk4LCJ5Ijo4NS42OTc2NzQ0MTg2MDQ2NX0seyJ4Ijo2ODMsInkiOjExMX0seyJ4Ijo2ODMsInkiOjE2M30seyJ4Ijo2ODMsInkiOjIxNX0seyJ4Ijo2ODMsInkiOjI3OX0seyJ4Ijo2ODMsInkiOjM0M30seyJ4Ijo2ODMsInkiOjQwN30seyJ4Ijo2ODMsInkiOjQ3MX0seyJ4Ijo2ODMsInkiOjUzNX0seyJ4Ijo2ODMsInkiOjU5OX0seyJ4Ijo2ODMsInkiOjY2M30seyJ4Ijo2ODMsInkiOjcyN30seyJ4Ijo1NDUuNSwieSI6NzY2LjA2NTQyMDU2MDc0NzZ9XQ==" data-look="classic" marker-end="url(#my-svg_flowchart-v2-pointEnd)"/><path d="M338,72.212L304.667,78.677C271.333,85.141,204.667,98.071,171.333,108.035C138,118,138,125,138,128.5L138,132" id="my-svg-L_TESTS_INSTALL_0" class="edge-thickness-normal edge-pattern-solid edge-thickness-normal edge-pattern-solid flowchart-link" style=";" data-edge="true" data-et="edge" data-id="L_TESTS_INSTALL_0" data-points="W3sieCI6MzM4LCJ5Ijo3Mi4yMTIxMjEyMTIxMjEyMn0seyJ4IjoxMzgsInkiOjExMX0seyJ4IjoxMzgsInkiOjEzNn1d" data-look="classic" marker-end="url(#my-svg_flowchart-v2-pointEnd)"/></g><g class="edgeLabels"><g class="edgeLabel"><g class="label" data-id="L_CONTRACT_SCHEMA_0" transform="translate(0, 0)"><foreignObject width="0" height="0"><div xmlns="http://www.w3.org/1999/xhtml" class="labelBkg" style="display: table-cell; white-space: nowrap; line-height: 1.5; max-width: 200px; text-align: center;"><span class="edgeLabel"></span></div></foreignObject></g></g><g class="edgeLabel"><g class="label" data-id="L_CONTRACT_DSLVAL_0" transform="translate(0, 0)"><foreignObject width="0" height="0"><div xmlns="http://www.w3.org/1999/xhtml" class="labelBkg" style="display: table-cell; white-space: nowrap; line-height: 1.5; max-width: 200px; text-align: center;"><span class="edgeLabel"></span></div></foreignObject></g></g><g class="edgeLabel"><g class="label" data-id="L_CONTRACT_MERVAL_0" transform="translate(0, 0)"><foreignObject width="0" height="0"><div xmlns="http://www.w3.org/1999/xhtml" class="labelBkg" style="display: table-cell; white-space: nowrap; line-height: 1.5; max-width: 200px; text-align: center;"><span class="edgeLabel"></span></div></foreignObject></g></g><g class="edgeLabel"><g class="label" data-id="L_CONTRACT_RENDER_0" transform="translate(0, 0)"><foreignObject width="0" height="0"><div xmlns="http://www.w3.org/1999/xhtml" class="labelBkg" style="display: table-cell; white-space: nowrap; line-height: 1.5; max-width: 200px; text-align: center;"><span class="edgeLabel"></span></div></foreignObject></g></g><g class="edgeLabel"><g class="label" data-id="L_SCHEMA_DSLVAL_0" transform="translate(0, 0)"><foreignObject width="0" height="0"><div xmlns="http://www.w3.org/1999/xhtml" class="labelBkg" style="display: table-cell; white-space: nowrap; line-height: 1.5; max-width: 200px; text-align: center;"><span class="edgeLabel"></span></div></foreignObject></g></g><g class="edgeLabel"><g class="label" data-id="L_DSLVAL_MERVAL_0" transform="translate(0, 0)"><foreignObject width="0" height="0"><div xmlns="http://www.w3.org/1999/xhtml" class="labelBkg" style="display: table-cell; white-space: nowrap; line-height: 1.5; max-width: 200px; text-align: center;"><span class="edgeLabel"></span></div></foreignObject></g></g><g class="edgeLabel"><g class="label" data-id="L_DSLVAL_RENDER_0" transform="translate(0, 0)"><foreignObject width="0" height="0"><div xmlns="http://www.w3.org/1999/xhtml" class="labelBkg" style="display: table-cell; white-space: nowrap; line-height: 1.5; max-width: 200px; text-align: center;"><span class="edgeLabel"></span></div></foreignObject></g></g><g class="edgeLabel"><g class="label" data-id="L_MERVAL_RENDER_0" transform="translate(0, 0)"><foreignObject width="0" height="0"><div xmlns="http://www.w3.org/1999/xhtml" class="labelBkg" style="display: table-cell; white-space: nowrap; line-height: 1.5; max-width: 200px; text-align: center;"><span class="edgeLabel"></span></div></foreignObject></g></g><g class="edgeLabel"><g class="label" data-id="L_INSTALL_CONTRACT_0" transform="translate(0, 0)"><foreignObject width="0" height="0"><div xmlns="http://www.w3.org/1999/xhtml" class="labelBkg" style="display: table-cell; white-space: nowrap; line-height: 1.5; max-width: 200px; text-align: center;"><span class="edgeLabel"></span></div></foreignObject></g></g><g class="edgeLabel"><g class="label" data-id="L_TESTS_SCHEMA_0" transform="translate(0, 0)"><foreignObject width="0" height="0"><div xmlns="http://www.w3.org/1999/xhtml" class="labelBkg" style="display: table-cell; white-space: nowrap; line-height: 1.5; max-width: 200px; text-align: center;"><span class="edgeLabel"></span></div></foreignObject></g></g><g class="edgeLabel"><g class="label" data-id="L_TESTS_DSLVAL_0" transform="translate(0, 0)"><foreignObject width="0" height="0"><div xmlns="http://www.w3.org/1999/xhtml" class="labelBkg" style="display: table-cell; white-space: nowrap; line-height: 1.5; max-width: 200px; text-align: center;"><span class="edgeLabel"></span></div></foreignObject></g></g><g class="edgeLabel"><g class="label" data-id="L_TESTS_MERVAL_0" transform="translate(0, 0)"><foreignObject width="0" height="0"><div xmlns="http://www.w3.org/1999/xhtml" class="labelBkg" style="display: table-cell; white-space: nowrap; line-height: 1.5; max-width: 200px; text-align: center;"><span class="edgeLabel"></span></div></foreignObject></g></g><g class="edgeLabel"><g class="label" data-id="L_TESTS_RENDER_0" transform="translate(0, 0)"><foreignObject width="0" height="0"><div xmlns="http://www.w3.org/1999/xhtml" class="labelBkg" style="display: table-cell; white-space: nowrap; line-height: 1.5; max-width: 200px; text-align: center;"><span class="edgeLabel"></span></div></foreignObject></g></g><g class="edgeLabel"><g class="label" data-id="L_TESTS_INSTALL_0" transform="translate(0, 0)"><foreignObject width="0" height="0"><div xmlns="http://www.w3.org/1999/xhtml" class="labelBkg" style="display: table-cell; white-space: nowrap; line-height: 1.5; max-width: 200px; text-align: center;"><span class="edgeLabel"></span></div></foreignObject></g></g></g><g class="nodes"><g class="node default" id="my-svg-flowchart-CONTRACT-0" data-look="classic" transform="translate(138, 279)"><rect class="basic label-container" style="" x="-130" y="-39" width="260" height="78"/><g class="label" style="" transform="translate(-100, -24)"><rect/><foreignObject width="200" height="48"><div xmlns="http://www.w3.org/1999/xhtml" style="display: table; white-space: break-spaces; line-height: 1.5; max-width: 200px; text-align: center; width: 200px;"><span class="nodeLabel"><p>MOD-SKILL-CONTRACT 技能契约</p></span></div></foreignObject></g></g><g class="node default" id="my-svg-flowchart-SCHEMA-1" data-look="classic" transform="translate(313, 407)"><rect class="basic label-container" style="" x="-130" y="-39" width="260" height="78"/><g class="label" style="" transform="translate(-100, -24)"><rect/><foreignObject width="200" height="48"><div xmlns="http://www.w3.org/1999/xhtml" style="display: table; white-space: break-spaces; line-height: 1.5; max-width: 200px; text-align: center; width: 200px;"><span class="nodeLabel"><p>MOD-DSL-SCHEMA DSL Schema</p></span></div></foreignObject></g></g><g class="node default" id="my-svg-flowchart-DSLVAL-2" data-look="classic" transform="translate(313, 535)"><rect class="basic label-container" style="" x="-130" y="-39" width="260" height="78"/><g class="label" style="" transform="translate(-100, -24)"><rect/><foreignObject width="200" height="48"><div xmlns="http://www.w3.org/1999/xhtml" style="display: table; white-space: break-spaces; line-height: 1.5; max-width: 200px; text-align: center; width: 200px;"><span class="nodeLabel"><p>MOD-DSL-VALIDATOR DSL 校验器</p></span></div></foreignObject></g></g><g class="node default" id="my-svg-flowchart-MERVAL-3" data-look="classic" transform="translate(518, 663)"><rect class="basic label-container" style="" x="-130" y="-39" width="260" height="78"/><g class="label" style="" transform="translate(-100, -24)"><rect/><foreignObject width="200" height="48"><div xmlns="http://www.w3.org/1999/xhtml" style="display: table; white-space: break-spaces; line-height: 1.5; max-width: 200px; text-align: center; width: 200px;"><span class="nodeLabel"><p>MOD-MERMAID-VALIDATOR Mermaid 校验器</p></span></div></foreignObject></g></g><g class="node default" id="my-svg-flowchart-RENDER-4" data-look="classic" transform="translate(415.5, 803)"><rect class="basic label-container" style="" x="-130" y="-51" width="260" height="102"/><g class="label" style="" transform="translate(-100, -36)"><rect/><foreignObject width="200" height="72"><div xmlns="http://www.w3.org/1999/xhtml" style="display: table; white-space: break-spaces; line-height: 1.5; max-width: 200px; text-align: center; width: 200px;"><span class="nodeLabel"><p>MOD-MARKDOWN-RENDERER Markdown 渲染器</p></span></div></foreignObject></g></g><g class="node default" id="my-svg-flowchart-INSTALL-5" data-look="classic" transform="translate(138, 163)"><rect class="basic label-container" style="" x="-111.8828125" y="-27" width="223.765625" height="54"/><g class="label" style="" transform="translate(-81.8828125, -12)"><rect/><foreignObject width="163.765625" height="24"><div xmlns="http://www.w3.org/1999/xhtml" style="display: table-cell; white-space: nowrap; line-height: 1.5; max-width: 200px; text-align: center;"><span class="nodeLabel"><p>MOD-INSTALLER 安装器</p></span></div></foreignObject></g></g><g class="node default" id="my-svg-flowchart-TESTS-6" data-look="classic" transform="translate(468, 47)"><rect class="basic label-container" style="" x="-130" y="-39" width="260" height="78"/><g class="label" style="" transform="translate(-100, -24)"><rect/><foreignObject width="200" height="48"><div xmlns="http://www.w3.org/1999/xhtml" style="display: table; white-space: break-spaces; line-height: 1.5; max-width: 200px; text-align: center; width: 200px;"><span class="nodeLabel"><p>MOD-EXAMPLES-TESTS 示例与测试</p></span></div></foreignObject></g></g></g></g></g><defs><filter id="my-svg-drop-shadow" height="130%" width="130%"><feDropShadow dx="4" dy="4" stdDeviation="0" flood-opacity="0.06" flood-color="#000000"/></filter></defs><defs><filter id="my-svg-drop-shadow-small" height="150%" width="150%"><feDropShadow dx="2" dy="2" stdDeviation="0" flood-opacity="0.06" flood-color="#000000"/></filter></defs></svg>