<svg id="my-svg" width="100%" xmlns="http://www.w3.org/2000/svg" xmlns:xlink="http://www.w3.org/1999/xlink" class="flowchart" style="max-width: 564.137px; background-color: white;" viewBox="0 0 564.13671875 694" role="graphics-document document" aria-roledescription="flowchart-v2"><style>#my-svg{font-family:"trebuchet ms",verdana,arial,sans-serif;font-size:16px;fill:#333;}@keyframes edge-animation-frame{from{stroke-dashoffset:0;}}@keyframes dash{to{stroke-dashoffset:0;}}#my-svg .edge-animation-slow{stroke-dasharray:9,5!important;stroke-dashoffset:900;animation:dash 50s linear infinite;stroke-linecap:round;}#my-svg .edge-animation-fast{stroke-dasharray:9,5!important;stroke-dashoffset:900;animation:dash 20s linear infinite;stroke-linecap:round;}#my-svg .error-icon{fill:#552222;}#my-svg .error-text{fill:#552222;stroke:#552222;}#my-svg .edge-thickness-normal{stroke-width:1px;}#my-svg .edge-thickness-thick{stroke-width:3.5px;}#my-svg .edge-pattern-solid{stroke-dasharray:0;}#my-svg .edge-thickness-invisible{stroke-width:0;fill:none;}#my-svg .edge-pattern-dashed{stroke-dasharray:3;}#my-svg .edge-pattern-dotted{stroke-dasharray:2;}#my-svg .marker{fill:#333333;stroke:#333333;}#my-svg .marker.cross{stroke:#333333;}#my-svg svg{font-family:"trebuchet ms",verdana,arial,sans-serif;font-size:16px;}#my-svg p{margin:0;}#my-svg .label{font-family:"trebuchet ms",verdana,arial,sans-serif;color:#333;}#my-svg .cluster-label text{fill:#333;}#my-svg .cluster-label span{color:#333;}#my-svg .cluster-label span p{background-color:transparent;}#my-svg .label text,#my-svg span{fill:#333;color:#333;}#my-svg .node rect,#my-svg .node circle,#my-svg .node ellipse,#my-svg .node polygon,#my-svg .node path{fill:#ECECFF;stroke:#9370DB;stroke-width:1px;}#my-svg .rough-node .label text,#my-svg .node .label text,#my-svg .image-shape .label,#my-svg .icon-shape .label{text-anchor:middle;}#my-svg .node .katex path{fill:#000;stroke:#000;stroke-width:1px;}#my-svg .rough-node .label,#my-svg .node .label,#my-svg .image-shape .label,#my-svg .icon-shape .label{text-align:center;}#my-svg .node.clickable{cursor:pointer;}#my-svg .root .anchor path{fill:#333333!important;stroke-width:0;stroke:#333333;}#my-svg .arrowheadPath{fill:#333333;}#my-svg .edgePath .path{stroke:#333333;stroke-width:1px;}#my-svg .flowchart-link{stroke:#333333;fill:none;}#my-svg .edgeLabel{background-color:rgba(232,232,232, 0.8);text-align:center;}#my-svg .edgeLabel p{background-color:rgba(232,232,232, 0.8);}#my-svg .edgeLabel rect{opacity:0.5;background-color:rgba(232,232,232, 0.8);fill:rgba(232,232,232, 0.8);}#my-svg .labelBkg{background-color:rgba(232, 232, 232, 0.5);}#my-svg .cluster rect{fill:#ffffde;stroke:#aaaa33;stroke-width:1px;}#my-svg .cluster text{fill:#333;}#my-svg .cluster span{color:#333;}#my-svg div.mermaidTooltip{position:absolute;text-align:center;max-width:200px;padding:2px;font-family:"trebuchet ms",verdana,arial,sans-serif;font-size:12px;background:hsl(80, 100%, 96.2745098039%);border:1px solid #aaaa33;border-radius:2px;pointer-events:none;z-index:100;}#my-svg .flowchartTitleText{text-anchor:middle;font-size:18px;fill:#333;}#my-svg rect.text{fill:none;stroke-width:0;}#my-svg .icon-shape,#my-svg .image-shape{background-color:rgba(232,232,232, 0.8);text-align:center;}#my-svg .icon-shape p,#my-svg .image-shape p{background-color:rgba(232,232,232, 0.8);padding:2px;}#my-svg .icon-shape .label rect,#my-svg .image-shape .label rect{opacity:0.5;background-color:rgba(232,232,232, 0.8);fill:rgba(232,232,232, 0.8);}#my-svg .label-icon{display:inline-block;height:1em;overflow:visible;vertical-align:-0.125em;}#my-svg .node .label-icon path{fill:currentColor;stroke:revert;stroke-width:revert;}#my-svg .node .neo-node{stroke:#9370DB;}#my-svg [data-look="neo"].node rect,#my-svg [data-look="neo"].cluster rect,#my-svg [data-look="neo"].node polygon{stroke:#9370DB;filter:drop-shadow(1px 2px 2px rgba(185, 185, 185, 1));}#my-svg [data-look="neo"].node path{stroke:#9370DB;stroke-width:1px;}#my-svg [data-look="neo"].node .outer-path{filter:drop-shadow(1px 2px 2px rgba(185, 185, 185, 1));}#my-svg [data-look="neo"].node .neo-line path{stroke:#9370DB;filter:none;}#my-svg [data-look="neo"].node circle{stroke:#9370DB;filter:drop-shadow(1px 2px 2px rgba(185, 185, 185, 1));}#my-svg [data-look="neo"].node circle .state-start{fill:#000000;}#my-svg [data-look="neo"].icon-shape .icon{fill:#9370DB;filter:drop-shadow(1px 2px 2px rgba(185, 185, 185, 1));}#my-svg [data-look="neo"].icon-shape .icon-neo path{stroke:#9370DB;filter:drop-shadow(1px 2px 2px rgba(185, 185, 185, 1));}#my-svg :root{--mermaid-font-family:"trebuchet ms",verdana,arial,sans-serif;}</style><g><marker id="my-svg_flowchart-v2-pointEnd" class="marker flowchart-v2" viewBox="0 0 10 10" refX="5" refY="5" markerUnits="userSpaceOnUse" markerWidth="8" markerHeight="8" orient="auto"><path d="M 0 0 L 10 5 L 0 10 z" class="arrowMarkerPath" style="stroke-width: 1; stroke-dasharray: 1, 0;"/></marker><marker id="my-svg_flowchart-v2-pointStart" class="marker flowchart-v2" viewBox="0 0 10 10" refX="4.5" refY="5" markerUnits="userSpaceOnUse" markerWidth="8" markerHeight="8" orient="auto"><path d="M 0 5 L 10 10 L 10 0 z" class="arrowMarkerPath" style="stroke-width: 1; stroke-dasharray: 1, 0;"/></marker><marker id="my-svg_flowchart-v2-pointEnd-margin" class="marker flowchart-v2" viewBox="0 0 11.5 14" refX="11.5" refY="7" markerUnits="userSpaceOnUse" markerWidth="10.5" markerHeight="14" orient="auto"><path d="M 0 0 L 11.5 7 L 0 14 z" class="arrowMarkerPath" style="stroke-width: 0; stroke-dasharray: 1, 0;"/></marker><marker id="my-svg_flowchart-v2-pointStart-margin" class="marker flowchart-v2" viewBox="0 0 11.5 14" refX="1" refY="7" markerUnits="userSpaceOnUse" markerWidth="11.5" markerHeight="14" orient="auto"><polygon points="0,7 11.5,14 11.5,0" class="arrowMarkerPath" style="stroke-width: 0; stroke-dasharray: 1, 0;"/></marker><marker id="my-svg_flowchart-v2-circleEnd" class="marker flowchart-v2" viewBox="0 0 10 10" refX="11" refY="5" markerUnits="userSpaceOnUse" markerWidth="11" markerHeight="11" orient="auto"><circle cx="5" cy="5" r="5" class="arrowMarkerPath" style="stroke-width: 1; stroke-dasharray: 1, 0;"/></marker><marker id="my-svg_flowchart-v2-circleStart" class="marker flowchart-v2" viewBox="0 0 10 10" refX="-1" refY="5" markerUnits="userSpaceOnUse" markerWidth="11" markerHeight="11" orient="auto"><circle cx="5" cy="5" r="5" class="arrowMarkerPath" style="stroke-width: 1; stroke-dasharray: 1, 0;"/></marker><marker id="my-svg_flowchart-v2-circleEnd-margin" class="marker flowchart-v2" viewBox="0 0 10 10" refY="5" refX="12.25" markerUnits="userSpaceOnUse" markerWidth="14" markerHeight="14" orient="auto"><circle cx="5" cy="5" r="5" class="arrowMarkerPath" style="stroke-width: 0; stroke-dasharray: 1, 0;"/></marker><marker id="my-svg_flowchart-v2-circleStart-margin" class="marker flowchart-v2" viewBox="0 0 10 10" refX="-2" refY="5" markerUnits="userSpaceOnUse" markerWidth="14" markerHeight="14" orient="auto"><circle cx="5" cy="5" r="5" class="arrowMarkerPath" style="stroke-width: 0; stroke-dasharray: 1, 0;"/></marker><marker id="my-svg_flowchart-v2-crossEnd" class="marker cross flowchart-v2" viewBox="0 0 11 11" refX="12" refY="5.2" markerUnits="userSpaceOnUse" markerWidth="11" markerHeight="11" orient="auto"><path d="M 1,1 l 9,9 M 10,1 l -9,9" class="arrowMarkerPath" style="stroke-width: 2; stroke-dasharray: 1, 0;"/></marker><marker id="my-svg_flowchart-v2-crossStart" class="marker cross flowchart-v2" viewBox="0 0 11 11" refX="-1" refY="5.2" markerUnits="userSpaceOnUse" markerWidth="11" markerHeight="11" orient="auto"><path d="M 1,1 l 9,9 M 10,1 l -9,9" class="arrowMarkerPath" style="stroke-width: 2; stroke-dasharray: 1, 0;"/></marker><marker id="my-svg_flowchart-v2-crossEnd-margin" class="marker cross flowchart-v2" viewBox="0 0 15 15" refX="17.7" refY="7.5" markerUnits="userSpaceOnUse" markerWidth="12" markerHeight="12" orient="auto"><path d="M 1,1 L 14,14 M 1,14 L 14,1" class="arrowMarkerPath" style="stroke-width: 2.5;"/></marker><marker id="my-svg_flowchart-v2-crossStart-margin" class="marker cross flowchart-v2" viewBox="0 0 15 15" refX="-3.5" refY="7.5" markerUnits="userSpaceOnUse" markerWidth="12" markerHeight="12" orient="auto"><path d="M 1,1 L 14,14 M 1,14 L 14,1" class="arrowMarkerPath" style="stroke-width: 2.5; stroke-dasharray: 1, 0;"/></marker><g class="root"><g class="clusters"/><g class="edgePaths"><path d="M81.972,270L85.794,274.167C89.617,278.333,97.262,286.667,105.212,294.554C113.163,302.441,121.42,309.881,125.548,313.602L129.677,317.322" id="my-svg-L_CONTRACT_SCHEMA_0" class="edge-thickness-normal edge-pattern-solid edge-thickness-normal edge-pattern-solid flowchart-link" style=";" data-edge="true" data-et="edge" data-id="L_CONTRACT_SCHEMA_0" data-points="W3sieCI6ODEuOTcyMDU1Mjg4NDYxNTUsInkiOjI3MH0seyJ4IjoxMDQuOTA2MjUsInkiOjI5NX0seyJ4IjoxMzIuNjQ4MTM3MDE5MjMwNzcsInkiOjMyMH1d" data-look="classic" marker-end="url(#my-svg_flowchart-v2-pointEnd)"/><path d="M52.011,270L51.21,274.167C50.408,278.333,48.806,286.667,48.004,299.5C47.203,312.333,47.203,329.667,47.203,347C47.203,364.333,47.203,381.667,63.46,395.488C79.716,409.309,112.229,419.619,128.485,424.774L144.742,429.928" id="my-svg-L_CONTRACT_DSLVAL_0" class="edge-thickness-normal edge-pattern-solid edge-thickness-normal edge-pattern-solid flowchart-link" style=";" data-edge="true" data-et="edge" data-id="L_CONTRACT_DSLVAL_0" data-points="W3sieCI6NTIuMDEwODE3MzA3NjkyMzEsInkiOjI3MH0seyJ4Ijo0Ny4yMDMxMjUsInkiOjI5NX0seyJ4Ijo0Ny4yMDMxMjUsInkiOjM0N30seyJ4Ijo0Ny4yMDMxMjUsInkiOjM5OX0seyJ4IjoxNDguNTU0Njg3NSwieSI6NDMxLjEzNzM5MjIxNTcxMTV9XQ==" data-look="classic" marker-end="url(#my-svg_flowchart-v2-pointEnd)"/><path d="M162.609,374L162.609,378.167C162.609,382.333,162.609,390.667,166.047,398.513C169.485,406.359,176.361,413.718,179.799,417.398L183.237,421.077" id="my-svg-L_SCHEMA_DSLVAL_0" class="edge-thickness-normal edge-pattern-solid edge-thickness-normal edge-pattern-solid flowchart-link" style=";" data-edge="true" data-et="edge" data-id="L_SCHEMA_DSLVAL_0" data-points="W3sieCI6MTYyLjYwOTM3NSwieSI6Mzc0fSx7IngiOjE2Mi42MDkzNzUsInkiOjM5OX0seyJ4IjoxODUuOTY3OTk4Nzk4MDc2OTMsInkiOjQyNH1d" data-look="classic" marker-end="url(#my-svg_flowchart-v2-pointEnd)"/><path d="M211.195,478L211.195,482.167C211.195,486.333,211.195,494.667,220.975,502.752C230.754,510.837,250.313,518.675,260.092,522.593L269.872,526.512" id="my-svg-L_DSLVAL_MERVAL_0" class="edge-thickness-normal edge-pattern-solid edge-thickness-normal edge-pattern-solid flowchart-link" style=";" data-edge="true" data-et="edge" data-id="L_DSLVAL_MERVAL_0" data-points="W3sieCI6MjExLjE5NTMxMjUsInkiOjQ3OH0seyJ4IjoyMTEuMTk1MzEyNSwieSI6NTAzfSx7IngiOjI3My41ODQ1MTAyMTYzNDYyLCJ5Ijo1Mjh9XQ==" data-look="classic" marker-end="url(#my-svg_flowchart-v2-pointEnd)"/><path d="M340.965,582L340.965,586.167C340.965,590.333,340.965,598.667,350.517,606.747C360.07,614.828,379.175,622.656,388.727,626.57L398.28,630.483" id="my-svg-L_MERVAL_RENDER_0" class="edge-thickness-normal edge-pattern-solid edge-thickness-normal edge-pattern-solid flowchart-link" style=";" data-edge="true" data-et="edge" data-id="L_MERVAL_RENDER_0" data-points="W3sieCI6MzQwLjk2NDg0Mzc1LCJ5Ijo1ODJ9LHsieCI6MzQwLjk2NDg0Mzc1LCJ5Ijo2MDd9LHsieCI6NDAxLjk4MTIxOTk1MTkyMzEsInkiOjYzMn1d" data-look="classic" marker-end="url(#my-svg_flowchart-v2-pointEnd)"/><path d="M233.609,149.457L204.208,156.381C174.807,163.305,116.005,177.152,86.604,187.576C57.203,198,57.203,205,57.203,208.5L57.203,212" id="my-svg-L_INSTALL_CONTRACT_0" class="edge-thickness-normal edge-pattern-solid edge-thickness-normal edge-pattern-solid flowchart-link" style=";" data-edge="true" data-et="edge" data-id="L_INSTALL_CONTRACT_0" data-points="W3sieCI6MjMzLjYwOTM3NSwieSI6MTQ5LjQ1NzQwMTY0MTY2NDMyfSx7IngiOjU3LjIwMzEyNSwieSI6MTkxfSx7IngiOjU3LjIwMzEyNSwieSI6MjE2fV0=" data-look="classic" marker-end="url(#my-svg_flowchart-v2-pointEnd)"/><path d="M233.609,159.009L221.776,164.341C209.943,169.672,186.276,180.336,174.443,194.335C162.609,208.333,162.609,225.667,162.609,243C162.609,260.333,162.609,277.667,162.609,289.833C162.609,302,162.609,309,162.609,312.5L162.609,316" id="my-svg-L_INSTALL_SCHEMA_0" class="edge-thickness-normal edge-pattern-solid edge-thickness-normal edge-pattern-solid flowchart-link" style=";" data-edge="true" data-et="edge" data-id="L_INSTALL_SCHEMA_0" data-points="W3sieCI6MjMzLjYwOTM3NSwieSI6MTU5LjAwODY2NTA0MTk3MTN9LHsieCI6MTYyLjYwOTM3NSwieSI6MTkxfSx7IngiOjE2Mi42MDkzNzUsInkiOjI0M30seyJ4IjoxNjIuNjA5Mzc1LCJ5IjoyOTV9LHsieCI6MTYyLjYwOTM3NSwieSI6MzIwfV0=" data-look="classic" marker-end="url(#my-svg_flowchart-v2-pointEnd)"/><path d="M278.016,166L278.016,170.167C278.016,174.333,278.016,182.667,278.016,195.5C278.016,208.333,278.016,225.667,278.016,243C278.016,260.333,278.016,277.667,278.016,295C278.016,312.333,278.016,329.667,278.016,347C278.016,364.333,278.016,381.667,273.188,394.091C268.359,406.514,258.703,414.029,253.875,417.786L249.047,421.543" id="my-svg-L_INSTALL_DSLVAL_0" class="edge-thickness-normal edge-pattern-solid edge-thickness-normal edge-pattern-solid flowchart-link" style=";" data-edge="true" data-et="edge" data-id="L_INSTALL_DSLVAL_0" data-points="W3sieCI6Mjc4LjAxNTYyNSwieSI6MTY2fSx7IngiOjI3OC4wMTU2MjUsInkiOjE5MX0seyJ4IjoyNzguMDE1NjI1LCJ5IjoyNDN9LHsieCI6Mjc4LjAxNTYyNSwieSI6Mjk1fSx7IngiOjI3OC4wMTU2MjUsInkiOjM0N30seyJ4IjoyNzguMDE1NjI1LCJ5IjozOTl9LHsieCI6MjQ1Ljg5MDQ3NDc1OTYxNTQsInkiOjQyNH1d" data-look="classic" marker-end="url(#my-svg_flowchart-v2-pointEnd)"/><path d="M322.422,162.229L331.589,167.024C340.755,171.819,359.089,181.41,368.255,194.872C377.422,208.333,377.422,225.667,377.422,243C377.422,260.333,377.422,277.667,377.422,295C377.422,312.333,377.422,329.667,377.422,347C377.422,364.333,377.422,381.667,377.422,399C377.422,416.333,377.422,433.667,377.422,451C377.422,468.333,377.422,485.667,374.883,497.954C372.345,510.242,367.268,517.483,364.729,521.104L362.191,524.725" id="my-svg-L_INSTALL_MERVAL_0" class="edge-thickness-normal edge-pattern-solid edge-thickness-normal edge-pattern-solid flowchart-link" style=";" data-edge="true" data-et="edge" data-id="L_INSTALL_MERVAL_0" data-points="W3sieCI6MzIyLjQyMTg3NSwieSI6MTYyLjIyOTE3MzIxNTk2OTh9LHsieCI6Mzc3LjQyMTg3NSwieSI6MTkxfSx7IngiOjM3Ny40MjE4NzUsInkiOjI0M30seyJ4IjozNzcuNDIxODc1LCJ5IjoyOTV9LHsieCI6Mzc3LjQyMTg3NSwieSI6MzQ3fSx7IngiOjM3Ny40MjE4NzUsInkiOjM5OX0seyJ4IjozNzcuNDIxODc1LCJ5Ijo0NTF9LHsieCI6Mzc3LjQyMTg3NSwieSI6NTAzfSx7IngiOjM1OS44OTQ0NTYxMjk4MDc3LCJ5Ijo1Mjh9XQ==" data-look="classic" marker-end="url(#my-svg_flowchart-v2-pointEnd)"/><path d="M322.422,151.838L344.998,158.365C367.574,164.892,412.727,177.946,435.303,193.14C457.879,208.333,457.879,225.667,457.879,243C457.879,260.333,457.879,277.667,457.879,295C457.879,312.333,457.879,329.667,457.879,347C457.879,364.333,457.879,381.667,457.879,399C457.879,416.333,457.879,433.667,457.879,451C457.879,468.333,457.879,485.667,457.879,503C457.879,520.333,457.879,537.667,457.879,555C457.879,572.333,457.879,589.667,458.554,601.845C459.23,614.024,460.58,621.048,461.256,624.56L461.931,628.072" id="my-svg-L_INSTALL_RENDER_0" class="edge-thickness-normal edge-pattern-solid edge-thickness-normal edge-pattern-solid flowchart-link" style=";" data-edge="true" data-et="edge" data-id="L_INSTALL_RENDER_0" data-points="W3sieCI6MzIyLjQyMTg3NSwieSI6MTUxLjgzODIyMzQ3NzAzMzMyfSx7IngiOjQ1Ny44Nzg5MDYyNSwieSI6MTkxfSx7IngiOjQ1Ny44Nzg5MDYyNSwieSI6MjQzfSx7IngiOjQ1Ny44Nzg5MDYyNSwieSI6Mjk1fSx7IngiOjQ1Ny44Nzg5MDYyNSwieSI6MzQ3fSx7IngiOjQ1Ny44Nzg5MDYyNSwieSI6Mzk5fSx7IngiOjQ1Ny44Nzg5MDYyNSwieSI6NDUxfSx7IngiOjQ1Ny44Nzg5MDYyNSwieSI6NTAzfSx7IngiOjQ1Ny44Nzg5MDYyNSwieSI6NTU1fSx7IngiOjQ1Ny44Nzg5MDYyNSwieSI6NjA3fSx7IngiOjQ2Mi42ODY1OTg1NTc2OTIzLCJ5Ijo2MzJ9XQ==" data-look="classic" marker-end="url(#my-svg_flowchart-v2-pointEnd)"/><path d="M262.465,57.313L250.489,62.261C238.513,67.209,214.561,77.104,202.585,90.719C190.609,104.333,190.609,121.667,190.609,139C190.609,156.333,190.609,173.667,190.609,191C190.609,208.333,190.609,225.667,190.609,243C190.609,260.333,190.609,277.667,188.682,289.913C186.754,302.159,182.899,309.319,180.972,312.898L179.044,316.478" id="my-svg-L_TESTS_SCHEMA_0" class="edge-thickness-normal edge-pattern-solid edge-thickness-normal edge-pattern-solid flowchart-link" style=";" data-edge="true" data-et="edge" data-id="L_TESTS_SCHEMA_0" data-points="W3sieCI6MjYyLjQ2NDg0Mzc1LCJ5Ijo1Ny4zMTMxNDk4MDkxMzA2OX0seyJ4IjoxOTAuNjA5Mzc1LCJ5Ijo4N30seyJ4IjoxOTAuNjA5Mzc1LCJ5IjoxMzl9LHsieCI6MTkwLjYwOTM3NSwieSI6MTkxfSx7IngiOjE5MC42MDkzNzUsInkiOjI0M30seyJ4IjoxOTAuNjA5Mzc1LCJ5IjoyOTV9LHsieCI6MTc3LjE0NzgzNjUzODQ2MTU1LCJ5IjozMjB9XQ==" data-look="classic" marker-end="url(#my-svg_flowchart-v2-pointEnd)"/><path d="M337.735,62L341.016,66.167C344.297,70.333,350.86,78.667,354.141,91.5C357.422,104.333,357.422,121.667,357.422,139C357.422,156.333,357.422,173.667,357.422,191C357.422,208.333,357.422,225.667,357.422,243C357.422,260.333,357.422,277.667,357.422,295C357.422,312.333,357.422,329.667,357.422,347C357.422,364.333,357.422,381.667,344.119,395.064C330.816,408.461,304.21,417.923,290.908,422.653L277.605,427.384" id="my-svg-L_TESTS_DSLVAL_0" class="edge-thickness-normal edge-pattern-solid edge-thickness-normal edge-pattern-solid flowchart-link" style=";" data-edge="true" data-et="edge" data-id="L_TESTS_DSLVAL_0" data-points="W3sieCI6MzM3LjczNDc1MDYwMDk2MTU1LCJ5Ijo2Mn0seyJ4IjozNTcuNDIxODc1LCJ5Ijo4N30seyJ4IjozNTcuNDIxODc1LCJ5IjoxMzl9LHsieCI6MzU3LjQyMTg3NSwieSI6MTkxfSx7IngiOjM1Ny40MjE4NzUsInkiOjI0M30seyJ4IjozNTcuNDIxODc1LCJ5IjoyOTV9LHsieCI6MzU3LjQyMTg3NSwieSI6MzQ3fSx7IngiOjM1Ny40MjE4NzUsInkiOjM5OX0seyJ4IjoyNzMuODM1OTM3NSwieSI6NDI4LjcyNDIwNzkzOTMwNjV9XQ==" data-look="classic" marker-end="url(#my-svg_flowchart-v2-pointEnd)"/><path d="M359.542,62L366.189,66.167C372.836,70.333,386.129,78.667,392.775,91.5C399.422,104.333,399.422,121.667,399.422,139C399.422,156.333,399.422,173.667,399.422,191C399.422,208.333,399.422,225.667,399.422,243C399.422,260.333,399.422,277.667,399.422,295C399.422,312.333,399.422,329.667,399.422,347C399.422,364.333,399.422,381.667,399.422,399C399.422,416.333,399.422,433.667,399.422,451C399.422,468.333,399.422,485.667,395.236,498.057C391.05,510.447,382.678,517.894,378.492,521.618L374.306,525.341" id="my-svg-L_TESTS_MERVAL_0" class="edge-thickness-normal edge-pattern-solid edge-thickness-normal edge-pattern-solid flowchart-link" style=";" data-edge="true" data-et="edge" data-id="L_TESTS_MERVAL_0" data-points="W3sieCI6MzU5LjU0MjQ0MjkwODY1Mzg3LCJ5Ijo2Mn0seyJ4IjozOTkuNDIxODc1LCJ5Ijo4N30seyJ4IjozOTkuNDIxODc1LCJ5IjoxMzl9LHsieCI6Mzk5LjQyMTg3NSwieSI6MTkxfSx7IngiOjM5OS40MjE4NzUsInkiOjI0M30seyJ4IjozOTkuNDIxODc1LCJ5IjoyOTV9LHsieCI6Mzk5LjQyMTg3NSwieSI6MzQ3fSx7IngiOjM5OS40MjE4NzUsInkiOjM5OX0seyJ4IjozOTkuNDIxODc1LCJ5Ijo0NTF9LHsieCI6Mzk5LjQyMTg3NSwieSI6NTAzfSx7IngiOjM3MS4zMTc1MzMwNTI4ODQ2NCwieSI6NTI4fV0=" data-look="classic" marker-end="url(#my-svg_flowchart-v2-pointEnd)"/><path d="M370.48,52.4L388.38,58.166C406.28,63.933,442.079,75.467,459.979,89.9C477.879,104.333,477.879,121.667,477.879,139C477.879,156.333,477.879,173.667,477.879,191C477.879,208.333,477.879,225.667,477.879,243C477.879,260.333,477.879,277.667,477.879,295C477.879,312.333,477.879,329.667,477.879,347C477.879,364.333,477.879,381.667,477.879,399C477.879,416.333,477.879,433.667,477.879,451C477.879,468.333,477.879,485.667,477.879,503C477.879,520.333,477.879,537.667,477.879,555C477.879,572.333,477.879,589.667,477.204,601.845C476.528,614.024,475.177,621.048,474.502,624.56L473.827,628.072" id="my-svg-L_TESTS_RENDER_0" class="edge-thickness-normal edge-pattern-solid edge-thickness-normal edge-pattern-solid flowchart-link" style=";" data-edge="true" data-et="edge" data-id="L_TESTS_RENDER_0" data-points="W3sieCI6MzcwLjQ4MDQ2ODc1LCJ5Ijo1Mi4zOTk2MTI3NzgzMTU1ODZ9LHsieCI6NDc3Ljg3ODkwNjI1LCJ5Ijo4N30seyJ4Ijo0NzcuODc4OTA2MjUsInkiOjEzOX0seyJ4Ijo0NzcuODc4OTA2MjUsInkiOjE5MX0seyJ4Ijo0NzcuODc4OTA2MjUsInkiOjI0M30seyJ4Ijo0NzcuODc4OTA2MjUsInkiOjI5NX0seyJ4Ijo0NzcuODc4OTA2MjUsInkiOjM0N30seyJ4Ijo0NzcuODc4OTA2MjUsInkiOjM5OX0seyJ4Ijo0NzcuODc4OTA2MjUsInkiOjQ1MX0seyJ4Ijo0NzcuODc4OTA2MjUsInkiOjUwM30seyJ4Ijo0NzcuODc4OTA2MjUsInkiOjU1NX0seyJ4Ijo0NzcuODc4OTA2MjUsInkiOjYwN30seyJ4Ijo0NzMuMDcxMjEzOTQyMzA3NywieSI6NjMyfV0=" data-look="classic" marker-end="url(#my-svg_flowchart-v2-pointEnd)"/><path d="M296.505,62L293.423,66.167C290.342,70.333,284.179,78.667,281.097,86.333C278.016,94,278.016,101,278.016,104.5L278.016,108" id="my-svg-L_TESTS_INSTALL_0" class="edge-thickness-normal edge-pattern-solid edge-thickness-normal edge-pattern-solid flowchart-link" style=";" data-edge="true" data-et="edge" data-id="L_TESTS_INSTALL_0" data-points="W3sieCI6Mjk2LjUwNDU4MjMzMTczMDgsInkiOjYyfSx7IngiOjI3OC4wMTU2MjUsInkiOjg3fSx7IngiOjI3OC4wMTU2MjUsInkiOjExMn1d" data-look="classic" marker-end="url(#my-svg_flowchart-v2-pointEnd)"/></g><g class="edgeLabels"><g class="edgeLabel"><g class="label" data-id="L_CONTRACT_SCHEMA_0" transform="translate(0, 0)"><foreignObject width="0" height="0"><div xmlns="http://www.w3.org/1999/xhtml" class="labelBkg" style="display: table-cell; white-space: nowrap; line-height: 1.5; max-width: 200px; text-align: center;"><span class="edgeLabel"></span></div></foreignObject></g></g><g class="edgeLabel"><g class="label" data-id="L_CONTRACT_DSLVAL_0" transform="translate(0, 0)"><foreignObject width="0" height="0"><div xmlns="http://www.w3.org/1999/xhtml" class="labelBkg" style="display: table-cell; white-space: nowrap; line-height: 1.5; max-width: 200px; text-align: center;"><span class="edgeLabel"></span></div></foreignObject></g></g><g class="edgeLabel"><g class="label" data-id="L_SCHEMA_DSLVAL_0" transform="translate(0, 0)"><foreignObject width="0" height="0"><div xmlns="http://www.w3.org/1999/xhtml" class="labelBkg" style="display: table-cell; white-space: nowrap; line-height: 1.5; max-width: 200px; text-align: center;"><span class="edgeLabel"></span></div></foreignObject></g></g><g class="edgeLabel"><g class="label" data-id="L_DSLVAL_MERVAL_0" transform="translate(0, 0)"><foreignObject width="0" height="0"><div xmlns="http://www.w3.org/1999/xhtml" class="labelBkg" style="display: table-cell; white-space: nowrap; line-height: 1.5; max-width: 200px; text-align: center;"><span class="edgeLabel"></span></div></foreignObject></g></g><g class="edgeLabel"><g class="label" data-id="L_MERVAL_RENDER_0" transform="translate(0, 0)"><foreignObject width="0" height="0"><div xmlns="http://www.w3.org/1999/xhtml" class="labelBkg" style="display: table-cell; white-space: nowrap; line-height: 1.5; max-width: 200px; text-align: center;"><span class="edgeLabel"></span></div></foreignObject></g></g><g class="edgeLabel"><g class="label" data-id="L_INSTALL_CONTRACT_0" transform="translate(0, 0)"><foreignObject width="0" height="0"><div xmlns="http://www.w3.org/1999/xhtml" class="labelBkg" style="display: table-cell; white-space: nowrap; line-height: 1.5; max-width: 200px; text-align: center;"><span class="edgeLabel"></span></div></foreignObject></g></g><g class="edgeLabel"><g class="label" data-id="L_INSTALL_SCHEMA_0" transform="translate(0, 0)"><foreignObject width="0" height="0"><div xmlns="http://www.w3.org/1999/xhtml" class="labelBkg" style="display: table-cell; white-space: nowrap; line-height: 1.5; max-width: 200px; text-align: center;"><span class="edgeLabel"></span></div></foreignObject></g></g><g class="edgeLabel"><g class="label" data-id="L_INSTALL_DSLVAL_0" transform="translate(0, 0)"><foreignObject width="0" height="0"><div xmlns="http://www.w3.org/1999/xhtml" class="labelBkg" style="display: table-cell; white-space: nowrap; line-height: 1.5; max-width: 200px; text-align: center;"><span class="edgeLabel"></span></div></foreignObject></g></g><g class="edgeLabel"><g class="label" data-id="L_INSTALL_MERVAL_0" transform="translate(0, 0)"><foreignObject width="0" height="0"><div xmlns="http://www.w3.org/1999/xhtml" class="labelBkg" style="display: table-cell; white-space: nowrap; line-height: 1.5; max-width: 200px; text-align: center;"><span class="edgeLabel"></span></div></foreignObject></g></g><g class="edgeLabel"><g class="label" data-id="L_INSTALL_RENDER_0" transform="translate(0, 0)"><foreignObject width="0" height="0"><div xmlns="http://www.w3.org/1999/xhtml" class="labelBkg" style="display: table-cell; white-space: nowrap; line-height: 1.5; max-width: 200px; text-align: center;"><span class="edgeLabel"></span></div></foreignObject></g></g><g class="edgeLabel"><g class="label" data-id="L_TESTS_SCHEMA_0" transform="translate(0, 0)"><foreignObject width="0" height="0"><div xmlns="http://www.w3.org/1999/xhtml" class="labelBkg" style="display: table-cell; white-space: nowrap; line-height: 1.5; max-width: 200px; text-align: center;"><span class="edgeLabel"></span></div></foreignObject></g></g><g class="edgeLabel"><g class="label" data-id="L_TESTS_DSLVAL_0" transform="translate(0, 0)"><foreignObject width="0" height="0"><div xmlns="http://www.w3.org/1999/xhtml" class="labelBkg" style="display: table-cell; white-space: nowrap; line-height: 1.5; max-width: 200px; text-align: center;"><span class="edgeLabel"></span></div></foreignObject></g></g><g class="edgeLabel"><g class="label" data-id="L_TESTS_MERVAL_0" transform="translate(0, 0)"><foreignObject width="0" height="0"><div xmlns="http://www.w3.org/1999/xhtml" class="labelBkg" style="display: table-cell; white-space: nowrap; line-height: 1.5; max-width: 200px; text-align: center;"><span class="edgeLabel"></span></div></foreignObject></g></g><g class="edgeLabel"><g class="label" data-id="L_TESTS_RENDER_0" transform="translate(0, 0)"><foreignObject width="0" height="0"><div xmlns="http://www.w3.org/1999/xhtml" class="labelBkg" style="display: table-cell; white-space: nowrap; line-height: 1.5; max-width: 200px; text-align: center;"><span class="edgeLabel"></span></div></foreignObject></g></g><g class="edgeLabel"><g class="label" data-id="L_TESTS_INSTALL_0" transform="translate(0, 0)"><foreignObject width="0" height="0"><div xmlns="http://www.w3.org/1999/xhtml" class="labelBkg" style="display: table-cell; white-space: nowrap; line-height: 1.5; max-width: 200px; text-align: center;"><span class="edgeLabel"></span></div></foreignObject></g></g></g><g class="nodes"><g class="node default" id="my-svg-flowchart-CONTRACT-0" data-look="classic" transform="translate(57.203125, 243)"><rect class="basic label-container" style="" x="-49.203125" y="-27" width="98.40625" height="54"/><g class="label" style="" transform="translate(-19.203125, -12)"><rect/><foreignObject width="38.40625" height="24"><div xmlns="http://www.w3.org/1999/xhtml" style="display: table-cell; white-space: nowrap; line-height: 1.5; max-width: 200px; text-align: center;"><span class="nodeLabel"><p>技能契约</p></span></div></foreignObject></g></g><g class="node default" id="my-svg-flowchart-SCHEMA-1" data-look="classic" transform="translate(162.609375, 347)"><rect class="basic label-container" style="" x="-80.40625" y="-27" width="160.8125" height="54"/><g class="label" style="" transform="translate(-50.40625, -12)"><rect/><foreignObject width="100.8125" height="24"><div xmlns="http://www.w3.org/1999/xhtml" style="display: table-cell; white-space: nowrap; line-height: 1.5; max-width: 200px; text-align: center;"><span class="nodeLabel"><p>DSL Schema</p></span></div></foreignObject></g></g><g class="node default" id="my-svg-flowchart-DSLVAL-3" data-look="classic" transform="translate(211.1953125, 451)"><rect class="basic label-container" style="" x="-62.640625" y="-27" width="125.28125" height="54"/><g class="label" style="" transform="translate(-32.640625, -12)"><rect/><foreignObject width="65.28125" height="24"><div xmlns="http://www.w3.org/1999/xhtml" style="display: table-cell; white-space: nowrap; line-height: 1.5; max-width: 200px; text-align: center;"><span class="nodeLabel"><p>DSL 校验器</p></span></div></foreignObject></g></g><g class="node default" id="my-svg-flowchart-MERVAL-7" data-look="classic" transform="translate(340.96484375, 555)"><rect class="basic label-container" style="" x="-81.9140625" y="-27" width="163.828125" height="54"/><g class="label" style="" transform="translate(-51.9140625, -12)"><rect/><foreignObject width="103.828125" height="24"><div xmlns="http://www.w3.org/1999/xhtml" style="display: table-cell; white-space: nowrap; line-height: 1.5; max-width: 200px; text-align: center;"><span class="nodeLabel"><p>Mermaid 校验器</p></span></div></foreignObject></g></g><g class="node default" id="my-svg-flowchart-RENDER-9" data-look="classic" transform="translate(467.87890625, 659)"><rect class="basic label-container" style="" x="-88.2578125" y="-27" width="176.515625" height="54"/><g class="label" style="" transform="translate(-58.2578125, -12)"><rect/><foreignObject width="116.515625" height="24"><div xmlns="http://www.w3.org/1999/xhtml" style="display: table-cell; white-space: nowrap; line-height: 1.5; max-width: 200px; text-align: center;"><span class="nodeLabel"><p>Markdown 渲染器</p></span></div></foreignObject></g></g><g class="node default" id="my-svg-flowchart-INSTALL-10" data-look="classic" transform="translate(278.015625, 139)"><rect class="basic label-container" style="" x="-44.40625" y="-27" width="88.8125" height="54"/><g class="label" style="" transform="translate(-14.40625, -12)"><rect/><foreignObject width="28.8125" height="24"><div xmlns="http://www.w3.org/1999/xhtml" style="display: table-cell; white-space: nowrap; line-height: 1.5; max-width: 200px; text-align: center;"><span class="nodeLabel"><p>安装器</p></span></div></foreignObject></g></g><g class="node default" id="my-svg-flowchart-TESTS-20" data-look="classic" transform="translate(316.47265625, 35)"><rect class="basic label-container" style="" x="-54.0078125" y="-27" width="108.015625" height="54"/><g class="label" style="" transform="translate(-24.0078125, -12)"><rect/><foreignObject width="48.015625" height="24"><div xmlns="http://www.w3.org/1999/xhtml" style="display: table-cell; white-space: nowrap; line-height: 1.5; max-width: 200px; text-align: center;"><span class="nodeLabel"><p>示例与测试</p></span></div></foreignObject></g></g></g></g></g><defs><filter id="my-svg-drop-shadow" height="130%" width="130%"><feDropShadow dx="4" dy="4" stdDeviation="0" flood-opacity="0.06" flood-color="#000000"/></filter></defs><defs><filter id="my-svg-drop-shadow-small" height="150%" width="150%"><feDropShadow dx="2" dy="2" stdDeviation="0" flood-opacity="0.06" flood-color="#000000"/></filter></defs></svg>